<svg width="350" height="314" viewBox="0 0 350 314" fill="none" xmlns="http://www.w3.org/2000/svg">
<path d="M0 53.853C0 24.1108 24.1108 0 53.8529 0H295.501C325.243 0 349.353 24.1108 349.353 53.8529V313.147H0V53.853Z" fill="url(#paint0_linear_2198_3)"/>
<path d="M13.118 55.0795C13.118 30.815 32.7882 11.1448 57.0527 11.1448H292.301C316.565 11.1448 336.235 30.8151 336.235 55.0795V313.868H13.118V55.0795Z" fill="url(#paint1_linear_2198_3)"/>
<rect width="242.423" height="271.142" rx="21.9674" transform="matrix(-0.000701066 1 -1 -0.000384343 310.333 35.414)" fill="white"/>
<path d="M174.408 45.0959C175.712 44.534 177.21 44.534 178.514 45.0959L215.006 60.7361C217.287 61.7152 218.558 64.1589 218.053 66.57C217.564 68.9974 215.43 70.594 212.807 70.7406V72.0439C212.807 74.2106 211.21 75.9538 208.897 75.9538H143.732C141.718 75.9538 139.822 74.2106 139.822 72.0439V70.7406C137.494 70.594 135.359 68.9974 134.862 66.57C134.364 64.1589 135.64 61.7152 137.914 60.7361L174.408 45.0959ZM176.461 65.5274C179.345 65.5274 181.674 63.1977 181.674 60.3141C181.674 57.4355 179.345 55.1009 176.461 55.1009C173.577 55.1009 171.248 57.4355 171.248 60.3141C171.248 63.1977 173.577 65.5274 176.461 65.5274ZM155.462 112.446H161.978V81.167H172.404V112.446H180.371V81.167H190.797V112.446H197.314V81.167H207.74V113.147C207.838 113.196 207.936 113.114 208.034 113.326L215.853 118.539C217.759 119.81 218.607 122.189 217.939 124.388C217.271 126.587 215.251 128.086 212.954 128.086H139.822C137.671 128.086 135.644 126.587 134.979 124.388C134.313 122.189 135.165 119.81 137.077 118.539L144.897 113.326C144.989 113.114 145.086 113.196 145.035 113.147V81.167H155.462V112.446Z" fill="#FC658D"/>
<path d="M107.269 166.623C110.778 166.623 113.525 168.424 113.525 171.956C113.525 175.441 110.778 177.265 107.269 177.265H104.291V183.475H101.914V166.623H107.269ZM104.291 175.164H107.177C109.37 175.164 111.101 174.218 111.101 171.956C111.101 169.647 109.37 168.747 107.177 168.747H104.291V175.164ZM120.805 171.148C121.521 171.148 122.236 171.309 122.79 171.632V173.779C122.029 173.341 121.359 173.156 120.643 173.156C119.443 173.156 118.381 173.71 117.55 174.449V183.475H115.334V171.379H117.389V172.648C118.266 171.794 119.466 171.148 120.805 171.148ZM133.741 176.457C133.741 177.173 133.325 177.565 132.633 177.565H125.13C125.2 180.381 127.023 181.766 129.562 181.766C130.878 181.766 132.102 181.397 132.863 180.982V183.013C132.032 183.359 130.832 183.705 129.424 183.705C125.777 183.705 123.007 181.443 123.007 177.334C123.007 173.341 125.684 171.148 128.616 171.148C131.432 171.148 133.741 173.133 133.741 176.457ZM128.593 172.948C126.931 172.948 125.661 174.033 125.269 175.995H131.663C131.525 174.056 130.232 172.948 128.593 172.948ZM140.066 176.457H145.791V178.35H140.066V176.457ZM166.79 183.475H164.182L162.266 178.188H156.033L154.14 183.475H151.601L157.81 166.623H160.58L166.79 183.475ZM157.649 173.71L156.795 176.088H161.504L160.65 173.71C160.142 172.233 159.657 170.732 159.149 169.232C158.641 170.732 158.157 172.233 157.649 173.71ZM172.763 171.148C176.11 171.148 178.972 173.341 178.972 177.403C178.972 181.212 176.364 183.705 173.04 183.705C172.001 183.705 171.147 183.475 170.339 183.059V188.091H168.123V172.117C169.554 171.517 171.101 171.148 172.763 171.148ZM172.855 181.72C174.979 181.72 176.71 180.266 176.71 177.403C176.71 174.726 175.071 173.133 172.947 173.133C171.978 173.133 171.101 173.295 170.339 173.548V181.12C171.101 181.512 171.955 181.72 172.855 181.72ZM185.619 171.148C188.966 171.148 191.828 173.341 191.828 177.403C191.828 181.212 189.22 183.705 185.896 183.705C184.857 183.705 184.003 183.475 183.195 183.059V188.091H180.979V172.117C182.41 171.517 183.956 171.148 185.619 171.148ZM185.711 181.72C187.835 181.72 189.566 180.266 189.566 177.403C189.566 174.726 187.927 173.133 185.803 173.133C184.834 173.133 183.956 173.295 183.195 173.548V181.12C183.956 181.512 184.811 181.72 185.711 181.72ZM199.305 171.148C200.021 171.148 200.737 171.309 201.291 171.632V173.779C200.529 173.341 199.859 173.156 199.144 173.156C197.943 173.156 196.882 173.71 196.051 174.449V183.475H193.834V171.379H195.889V172.648C196.766 171.794 197.967 171.148 199.305 171.148ZM207.509 183.705C204.138 183.705 201.507 181.189 201.507 177.403C201.507 173.595 204.138 171.148 207.509 171.148C210.879 171.148 213.511 173.595 213.511 177.403C213.511 181.189 210.879 183.705 207.509 183.705ZM207.509 173.133C205.408 173.133 203.769 174.68 203.769 177.403C203.769 180.127 205.408 181.72 207.509 181.72C209.609 181.72 211.248 180.127 211.248 177.403C211.248 174.68 209.609 173.133 207.509 173.133ZM220.754 183.475H218.469L213.714 171.379H216.184L218.284 176.919C218.792 178.304 219.231 179.712 219.623 181.097C220.039 179.712 220.454 178.304 220.985 176.919L223.063 171.379H225.51L220.754 183.475ZM236.465 176.457C236.465 177.173 236.049 177.565 235.357 177.565H227.855C227.924 180.381 229.747 181.766 232.287 181.766C233.602 181.766 234.826 181.397 235.588 180.982V183.013C234.757 183.359 233.556 183.705 232.148 183.705C228.501 183.705 225.731 181.443 225.731 177.334C225.731 173.341 228.409 171.148 231.34 171.148C234.156 171.148 236.465 173.133 236.465 176.457ZM231.317 172.948C229.655 172.948 228.385 174.033 227.993 175.995H234.387C234.249 174.056 232.956 172.948 231.317 172.948ZM246.206 171.794V166.623H248.422V182.736C246.991 183.336 245.444 183.705 243.782 183.705C240.435 183.705 237.572 181.489 237.572 177.38C237.572 173.595 240.181 171.148 243.528 171.148C244.544 171.148 245.398 171.379 246.206 171.794ZM243.62 181.72C244.567 181.72 245.444 181.559 246.206 181.305V173.733C245.444 173.341 244.59 173.133 243.713 173.133C241.566 173.133 239.834 174.564 239.834 177.38C239.834 180.104 241.496 181.72 243.62 181.72ZM118.123 193.392C120.086 193.392 121.632 193.923 122.671 194.431V196.716C121.725 196.139 120.086 195.539 118.262 195.539C114.661 195.539 111.983 197.963 111.983 202.072C111.983 206.135 114.661 208.536 118.262 208.536C120.086 208.536 121.725 207.935 122.671 207.358V209.667C121.632 210.151 120.086 210.705 118.123 210.705C113.022 210.705 109.467 207.035 109.467 202.072C109.467 197.086 113.022 193.392 118.123 193.392ZM130.313 198.148C131.029 198.148 131.744 198.309 132.299 198.632V200.779C131.537 200.341 130.867 200.156 130.152 200.156C128.951 200.156 127.889 200.71 127.058 201.449V210.475H124.842V198.379H126.897V199.648C127.774 198.794 128.974 198.148 130.313 198.148ZM143.249 203.457C143.249 204.173 142.833 204.565 142.141 204.565H134.638C134.708 207.381 136.531 208.766 139.071 208.766C140.386 208.766 141.61 208.397 142.372 207.982V210.013C141.541 210.359 140.34 210.705 138.932 210.705C135.285 210.705 132.515 208.443 132.515 204.334C132.515 200.341 135.192 198.148 138.124 198.148C140.94 198.148 143.249 200.133 143.249 203.457ZM138.101 199.948C136.439 199.948 135.169 201.033 134.777 202.995H141.171C141.033 201.056 139.74 199.948 138.101 199.948ZM152.99 198.794V193.623H155.206V209.736C153.774 210.336 152.228 210.705 150.566 210.705C147.219 210.705 144.356 208.489 144.356 204.38C144.356 200.595 146.965 198.148 150.312 198.148C151.328 198.148 152.182 198.379 152.99 198.794ZM150.404 208.72C151.351 208.72 152.228 208.559 152.99 208.305V200.733C152.228 200.341 151.374 200.133 150.497 200.133C148.35 200.133 146.618 201.564 146.618 204.38C146.618 207.104 148.28 208.72 150.404 208.72ZM160.767 194.801C160.767 193.969 160.121 193.369 159.243 193.369C158.343 193.369 157.674 193.969 157.674 194.801C157.674 195.608 158.343 196.232 159.243 196.232C160.121 196.232 160.767 195.608 160.767 194.801ZM158.112 198.379H160.328V210.475H158.112V198.379ZM170.277 198.379V200.295H166.56V206.827C166.56 208.005 167.137 208.743 168.591 208.743C169.053 208.743 169.607 208.651 170.277 208.489V210.452C169.676 210.59 169.053 210.705 168.476 210.705C165.567 210.705 164.344 209.159 164.344 206.966V200.295H161.897V198.379H164.344V195.054H166.56V198.379H170.277ZM182.304 210.705C178.934 210.705 176.302 208.189 176.302 204.403C176.302 200.595 178.934 198.148 182.304 198.148C185.675 198.148 188.306 200.595 188.306 204.403C188.306 208.189 185.675 210.705 182.304 210.705ZM182.304 200.133C180.204 200.133 178.565 201.68 178.565 204.403C178.565 207.127 180.204 208.72 182.304 208.72C184.405 208.72 186.044 207.127 186.044 204.403C186.044 201.68 184.405 200.133 182.304 200.133ZM196.101 198.148C198.524 198.148 200.302 199.787 200.302 202.58V210.475H198.086V202.695C198.086 200.987 197.024 200.156 195.662 200.156C194.415 200.156 193.354 200.733 192.523 201.449V210.475H190.307V198.379H192.361V199.648C193.307 198.817 194.669 198.148 196.101 198.148ZM207.924 204.057V193.623H210.301V203.965C210.301 206.573 211.594 208.559 214.318 208.559C217.088 208.559 218.335 206.573 218.335 203.965V193.623H220.712V204.057C220.712 207.912 218.45 210.705 214.318 210.705C210.232 210.705 207.924 207.912 207.924 204.057ZM228.863 193.623C232.372 193.623 235.119 195.424 235.119 198.956C235.119 202.441 232.372 204.265 228.863 204.265H225.885V210.475H223.508V193.623H228.863ZM225.885 202.164H228.771C230.964 202.164 232.695 201.218 232.695 198.956C232.695 196.647 230.964 195.747 228.771 195.747H225.885V202.164ZM237.021 193.623H239.398V210.475H237.021V193.623Z" fill="black"/>
<path d="M115.743 231.615V235.407H110.992V239.24H115.743V242.992H110.992C110.753 247.903 106.601 250.857 101.052 250.857H100.094L109.835 260.758H103.607L93.9857 250.498V246.865H100.732C104.006 246.865 106.122 245.707 106.322 242.992H93.9857V239.24H106.322V235.407H93.9857V231.615H115.743ZM120.996 259.56V254.53C123.112 255.448 126.545 256.326 129.659 256.326C133.531 256.326 136.366 254.969 136.366 251.655C136.366 247.384 130.617 245.667 122.034 246.426L123.87 231.615H140.757V236.485H128.541L127.822 241.954C135.607 241.755 141.875 244.39 141.875 251.376C141.875 257.724 136.725 261.157 129.858 261.157C126.585 261.157 123.231 260.518 120.996 259.56ZM157.108 261.157C149.882 261.157 145.051 255.408 145.051 246.186C145.051 237.004 149.882 231.255 157.108 231.255C164.334 231.255 169.164 237.004 169.164 246.186C169.164 255.408 164.334 261.157 157.108 261.157ZM157.108 256.286C161.14 256.286 163.695 252.654 163.695 246.186C163.695 239.759 161.14 236.086 157.108 236.086C153.076 236.086 150.561 239.759 150.561 246.186C150.561 252.654 153.076 256.286 157.108 256.286ZM174.257 261.476C174.257 260.199 173.299 259.72 171.942 259.56C171.662 259.121 171.423 258.602 171.423 257.923C171.423 255.887 172.86 254.49 174.856 254.49C176.892 254.49 178.329 255.927 178.329 258.283C178.329 261.556 176.533 264.75 174.656 267.504H171.662C173.299 264.83 174.257 262.834 174.257 261.476ZM192.646 261.157C185.42 261.157 180.59 255.408 180.59 246.186C180.59 237.004 185.42 231.255 192.646 231.255C199.872 231.255 204.702 237.004 204.702 246.186C204.702 255.408 199.872 261.157 192.646 261.157ZM192.646 256.286C196.678 256.286 199.233 252.654 199.233 246.186C199.233 239.759 196.678 236.086 192.646 236.086C188.614 236.086 186.099 239.759 186.099 246.186C186.099 252.654 188.614 256.286 192.646 256.286ZM218.778 261.157C211.552 261.157 206.721 255.408 206.721 246.186C206.721 237.004 211.552 231.255 218.778 231.255C226.004 231.255 230.834 237.004 230.834 246.186C230.834 255.408 226.004 261.157 218.778 261.157ZM218.778 256.286C222.81 256.286 225.365 252.654 225.365 246.186C225.365 239.759 222.81 236.086 218.778 236.086C214.746 236.086 212.231 239.759 212.231 246.186C212.231 252.654 214.746 256.286 218.778 256.286ZM244.909 261.157C237.684 261.157 232.853 255.408 232.853 246.186C232.853 237.004 237.684 231.255 244.909 231.255C252.135 231.255 256.966 237.004 256.966 246.186C256.966 255.408 252.135 261.157 244.909 261.157ZM244.909 256.286C248.941 256.286 251.496 252.654 251.496 246.186C251.496 239.759 248.941 236.086 244.909 236.086C240.877 236.086 238.362 239.759 238.362 246.186C238.362 252.654 240.877 256.286 244.909 256.286Z" fill="black"/>
<circle cx="208.621" cy="116.749" r="16.0797" fill="#00843D"/>
<path d="M201.919 116.919L206.589 121.155L216.569 111.174" stroke="white" stroke-width="3.08931" stroke-linecap="round" stroke-linejoin="round"/>
<defs>
<linearGradient id="paint0_linear_2198_3" x1="174.677" y1="0" x2="174.677" y2="313.147" gradientUnits="userSpaceOnUse">
<stop stop-color="white"/>
<stop offset="1" stop-color="#21153D"/>
</linearGradient>
<linearGradient id="paint1_linear_2198_3" x1="174.677" y1="11.1448" x2="174.677" y2="313.868" gradientUnits="userSpaceOnUse">
<stop stop-color="#C4A0EC"/>
<stop offset="1" stop-color="#21153D"/>
</linearGradient>
</defs>
</svg>
