<svg width="127" height="37" viewBox="0 0 127 37" fill="none" xmlns="http://www.w3.org/2000/svg">
<path d="M126.294 32.4577C126.294 34.4129 124.677 35.9967 122.677 35.9967H4.32629C2.3275 35.9967 0.705078 34.4129 0.705078 32.4577V4.23582C0.705078 2.28155 2.3275 0.692261 4.32629 0.692261H122.677C124.677 0.692261 126.293 2.28155 126.293 4.23582L126.294 32.4577Z" fill="#1C1C1C"/>
<path d="M122.296 0.734877C124.474 0.734877 126.246 2.4627 126.246 4.58607V32.1027C126.246 34.2261 124.474 35.9539 122.296 35.9539H4.7037C2.52589 35.9539 0.753768 34.2261 0.753768 32.1027V4.58607C0.753768 2.4627 2.52589 0.734877 4.7037 0.734877H122.296ZM122.296 -4.52263e-05H4.7037C2.11784 -4.52263e-05 0 2.06485 0 4.58607V32.1027C0 34.6239 2.11784 36.6888 4.7037 36.6888H122.296C124.882 36.6888 127 34.6239 127 32.1027V4.58607C127 2.06485 124.882 -4.52263e-05 122.296 -4.52263e-05Z" fill="#A6A6A6"/>
<path d="M28.342 18.146C28.3147 15.1898 30.8246 13.7516 30.9394 13.6846C29.5179 11.664 27.3147 11.3879 26.5405 11.3659C24.69 11.176 22.8951 12.4454 21.9525 12.4454C20.991 12.4454 19.5395 11.3842 17.975 11.4154C15.9618 11.4457 14.0785 12.5821 13.0455 14.3468C10.9138 17.9451 12.5037 23.2329 14.546 26.1414C15.5677 27.5658 16.7615 29.1563 18.324 29.1004C19.8527 29.0389 20.4238 28.1501 22.2686 28.1501C24.0964 28.1501 24.6326 29.1004 26.2262 29.0646C27.8669 29.0389 28.8998 27.6337 29.8857 26.1964C31.0664 24.5638 31.5405 22.9559 31.5593 22.8733C31.5207 22.8605 28.373 21.6892 28.342 18.146Z" fill="white"/>
<path d="M25.3316 9.45255C26.1538 8.45002 26.7164 7.08611 26.5602 5.70203C25.3702 5.75339 23.8819 6.5046 23.0249 7.48511C22.2667 8.34913 21.5893 9.76532 21.7643 11.0971C23.1011 11.1944 24.4736 10.4395 25.3316 9.45255Z" fill="white"/>
<path d="M50.4677 28.8957H48.3312L47.161 25.3103H43.0932L41.9784 28.8957H39.8984L43.9286 16.6893H46.4178L50.4677 28.8957ZM46.8082 23.8061L45.7498 20.6187C45.6379 20.2931 45.4281 19.5263 45.1186 18.3192H45.081C44.9577 18.8384 44.7592 19.6052 44.4864 20.6187L43.4469 23.8061H46.8082Z" fill="white"/>
<path d="M60.8301 24.3867C60.8301 25.8837 60.4152 27.0669 59.5855 27.9355C58.8423 28.7087 57.9194 29.0948 56.8178 29.0948C55.6287 29.0948 54.7746 28.6784 54.2543 27.8456H54.2167V32.4821H52.211V22.9916C52.211 22.0506 52.1856 21.0847 52.1367 20.0941H53.9006L54.0126 21.4892H54.0502C54.7191 20.4381 55.7341 19.9135 57.0963 19.9135C58.1612 19.9135 59.0502 20.3234 59.7614 21.1444C60.4745 21.9662 60.8301 23.0467 60.8301 24.3867ZM58.7868 24.4583C58.7868 23.6016 58.5893 22.8953 58.1923 22.3395C57.7586 21.7598 57.1763 21.47 56.4462 21.47C55.9514 21.47 55.5017 21.6314 55.1 21.9497C54.6974 22.2707 54.434 22.6899 54.3108 23.209C54.2487 23.4512 54.2176 23.6493 54.2176 23.8052V25.2728C54.2176 25.913 54.419 26.4532 54.8216 26.8944C55.2242 27.3356 55.7473 27.5557 56.3907 27.5557C57.1462 27.5557 57.7341 27.2714 58.1546 26.7046C58.5761 26.1368 58.7868 25.3884 58.7868 24.4583Z" fill="white"/>
<path d="M71.2139 24.3867C71.2139 25.8837 70.7991 27.0669 69.9684 27.9355C69.2261 28.7087 68.3033 29.0948 67.2017 29.0948C66.0126 29.0948 65.1584 28.6784 64.6391 27.8456H64.6015V32.4821H62.5958V22.9916C62.5958 22.0506 62.5704 21.0847 62.5215 20.0941H64.2854L64.3973 21.4892H64.4349C65.1029 20.4381 66.1179 19.9135 67.4811 19.9135C68.5451 19.9135 69.4341 20.3234 70.1471 21.1444C70.8574 21.9662 71.2139 23.0467 71.2139 24.3867ZM69.1706 24.4583C69.1706 23.6016 68.9721 22.8953 68.5751 22.3395C68.1415 21.7598 67.561 21.47 66.8301 21.47C66.3343 21.47 65.8856 21.6314 65.4829 21.9497C65.0803 22.2707 64.8178 22.6899 64.6946 23.209C64.6334 23.4512 64.6015 23.6493 64.6015 23.8052V25.2728C64.6015 25.913 64.8028 26.4532 65.2035 26.8944C65.6062 27.3347 66.1292 27.5557 66.7746 27.5557C67.53 27.5557 68.118 27.2714 68.5385 26.7046C68.9599 26.1368 69.1706 25.3884 69.1706 24.4583Z" fill="white"/>
<path d="M82.8214 25.4728C82.8214 26.5111 82.4517 27.3559 81.7095 28.008C80.8939 28.7207 79.7584 29.0766 78.2993 29.0766C76.9522 29.0766 75.8722 28.8234 75.0547 28.3162L75.5194 26.6863C76.3999 27.2054 77.3661 27.4659 78.4188 27.4659C79.1742 27.4659 79.7622 27.299 80.1845 26.967C80.6051 26.6349 80.8148 26.1892 80.8148 25.6333C80.8148 25.138 80.6417 24.7207 80.2946 24.3822C79.9494 24.0438 79.3727 23.7292 78.5674 23.4384C76.3755 22.6413 75.2805 21.4737 75.2805 19.9383C75.2805 18.9348 75.6643 18.1121 76.4329 17.4719C77.1986 16.8307 78.2203 16.5106 79.4978 16.5106C80.637 16.5106 81.5834 16.7042 82.3388 17.0903L81.8374 18.6844C81.1319 18.3102 80.3341 18.1231 79.4414 18.1231C78.7358 18.1231 78.1845 18.2928 77.7894 18.6303C77.4555 18.9321 77.288 19.2999 77.288 19.7356C77.288 20.218 77.479 20.617 77.8628 20.9307C78.1968 21.2206 78.8035 21.5342 79.6841 21.8727C80.7612 22.2955 81.5524 22.7899 82.0613 23.3568C82.5684 23.9218 82.8214 24.629 82.8214 25.4728Z" fill="white"/>
<path d="M89.4547 21.5619H87.244V25.8352C87.244 26.9221 87.6334 27.4651 88.4143 27.4651C88.7727 27.4651 89.07 27.4349 89.3051 27.3743L89.3606 28.8593C88.9655 29.0033 88.4453 29.0758 87.8009 29.0758C87.0088 29.0758 86.3898 28.84 85.9429 28.3695C85.498 27.8981 85.2741 27.1074 85.2741 25.9966V21.56H83.957V20.0925H85.2741V18.4809L87.244 17.9012V20.0925H89.4547V21.5619Z" fill="white"/>
<path d="M99.428 24.4226C99.428 25.7755 99.031 26.8862 98.2389 27.7548C97.4082 28.6491 96.3056 29.0949 94.9312 29.0949C93.6067 29.0949 92.5521 28.6666 91.7656 27.8099C90.9792 26.9532 90.5859 25.8718 90.5859 24.5684C90.5859 23.2045 90.9905 22.0873 91.8023 21.2187C92.6123 20.3492 93.7054 19.9144 95.0799 19.9144C96.4044 19.9144 97.4703 20.3428 98.2746 21.2004C99.0441 22.0323 99.428 23.1064 99.428 24.4226ZM97.347 24.4859C97.347 23.6741 97.1692 22.978 96.8089 22.3973C96.3884 21.6948 95.7873 21.3444 95.0084 21.3444C94.2021 21.3444 93.5897 21.6957 93.1692 22.3973C92.8089 22.9789 92.6311 23.686 92.6311 24.5226C92.6311 25.3343 92.8089 26.0305 93.1692 26.6101C93.6029 27.3127 94.2087 27.6631 94.9905 27.6631C95.7562 27.6631 96.3574 27.3054 96.7911 26.5918C97.1608 26.0002 97.347 25.2967 97.347 24.4859Z" fill="white"/>
<path d="M105.947 21.8139C105.748 21.7782 105.537 21.7598 105.315 21.7598C104.609 21.7598 104.064 22.0194 103.68 22.5395C103.346 22.9981 103.178 23.5778 103.178 24.2776V28.8958H101.174L101.192 22.866C101.192 21.8515 101.167 20.9279 101.117 20.0951H102.864L102.938 21.7791H102.993C103.205 21.2003 103.539 20.7344 103.996 20.3849C104.443 20.0703 104.925 19.9135 105.446 19.9135C105.631 19.9135 105.798 19.9263 105.947 19.9492V21.8139Z" fill="white"/>
<path d="M114.917 24.0785C114.917 24.4288 114.894 24.7242 114.844 24.9654H108.827C108.85 25.8349 109.141 26.4999 109.7 26.9585C110.207 27.3685 110.863 27.574 111.668 27.574C112.559 27.574 113.372 27.4355 114.102 27.1576L114.417 28.5151C113.562 28.8783 112.554 29.059 111.39 29.059C109.991 29.059 108.892 28.6572 108.092 27.8547C107.294 27.0521 106.895 25.9744 106.895 24.6224C106.895 23.2952 107.266 22.1899 108.01 21.3085C108.789 20.3674 109.842 19.8969 111.166 19.8969C112.467 19.8969 113.452 20.3674 114.121 21.3085C114.651 22.056 114.917 22.9806 114.917 24.0785ZM113.005 23.5712C113.018 22.9916 112.887 22.4908 112.615 22.0679C112.268 21.524 111.735 21.2525 111.017 21.2525C110.361 21.2525 109.828 21.5176 109.42 22.0496C109.086 22.4724 108.888 22.9796 108.827 23.5703H113.005V23.5712Z" fill="white"/>
<path d="M46.1434 9.18023C46.1434 10.2598 45.8114 11.0725 45.1481 11.6182C44.5338 12.1218 43.6608 12.374 42.53 12.374C41.9694 12.374 41.4896 12.3501 41.0879 12.3025V6.40379C41.6119 6.32124 42.1763 6.27905 42.7859 6.27905C43.8631 6.27905 44.6749 6.50744 45.2225 6.96422C45.8358 7.48061 46.1434 8.21898 46.1434 9.18023ZM45.1039 9.20683C45.1039 8.50699 44.9139 7.97041 44.5338 7.59618C44.1538 7.22287 43.5987 7.03576 42.8678 7.03576C42.5573 7.03576 42.293 7.05594 42.0738 7.09813V11.5824C42.1951 11.6008 42.4172 11.609 42.7398 11.609C43.4943 11.609 44.0766 11.4045 44.4868 10.9954C44.897 10.5863 45.1039 9.99013 45.1039 9.20683Z" fill="white"/>
<path d="M51.6559 10.1231C51.6559 10.7881 51.4612 11.3329 51.0717 11.7604C50.6634 12.1997 50.1225 12.4189 49.447 12.4189C48.7961 12.4189 48.2777 12.2089 47.8911 11.787C47.5054 11.3659 47.3125 10.8349 47.3125 10.1947C47.3125 9.52508 47.511 8.97566 47.9099 8.54916C48.3087 8.12265 48.845 7.90894 49.5204 7.90894C50.1714 7.90894 50.6945 8.11898 51.0905 8.53998C51.4668 8.94907 51.6559 9.47738 51.6559 10.1231ZM50.6333 10.1543C50.6333 9.7553 50.5449 9.41318 50.369 9.12792C50.162 8.78305 49.8676 8.61061 49.4847 8.61061C49.0886 8.61061 48.7876 8.78305 48.5806 9.12792C48.4038 9.41318 48.3163 9.76081 48.3163 10.1717C48.3163 10.5707 48.4047 10.9128 48.5806 11.1981C48.7942 11.543 49.0914 11.7154 49.4753 11.7154C49.8516 11.7154 50.147 11.5402 50.3596 11.1889C50.5421 10.8982 50.6333 10.5533 50.6333 10.1543Z" fill="white"/>
<path d="M59.0463 7.99707L57.6588 12.3209H56.7556L56.1809 10.4433C56.035 9.9746 55.9165 9.50865 55.8243 9.04637H55.8064C55.7208 9.52149 55.6023 9.98653 55.4499 10.4433L54.8394 12.3209H53.9259L52.6211 7.99707H53.6343L54.1357 10.0526C54.257 10.5387 54.3568 11.0019 54.4367 11.4403H54.4546C54.528 11.0789 54.6493 10.6185 54.8205 10.0617L55.4499 7.99799H56.2533L56.8563 10.0177C57.0021 10.5103 57.1207 10.9845 57.2119 11.4412H57.2392C57.306 10.9964 57.4066 10.5222 57.5402 10.0177L58.0783 7.99799H59.0463V7.99707Z" fill="white"/>
<path d="M64.1576 12.3207H63.1717V9.84422C63.1717 9.08109 62.8745 8.69953 62.278 8.69953C61.9855 8.69953 61.7493 8.80409 61.5659 9.01413C61.3843 9.22418 61.2921 9.47183 61.2921 9.75525V12.3198H60.3063V9.23243C60.3063 8.8527 60.294 8.44087 60.2705 7.9951H61.1369L61.183 8.67109H61.2103C61.3251 8.46105 61.4963 8.28769 61.7211 8.14919C61.9883 7.98776 62.2874 7.90613 62.6148 7.90613C63.0288 7.90613 63.3731 8.03637 63.6468 8.29778C63.9874 8.61789 64.1576 9.09577 64.1576 9.73048V12.3207Z" fill="white"/>
<path d="M66.8765 12.3208H65.8916V6.01306H66.8765V12.3208Z" fill="white"/>
<path d="M72.6793 10.1231C72.6793 10.7881 72.4846 11.3329 72.0951 11.7604C71.6869 12.1997 71.145 12.4189 70.4705 12.4189C69.8185 12.4189 69.3002 12.2089 68.9145 11.787C68.5288 11.3659 68.3359 10.8349 68.3359 10.1947C68.3359 9.52508 68.5344 8.97566 68.9333 8.54916C69.3322 8.12265 69.8684 7.90894 70.5429 7.90894C71.1948 7.90894 71.717 8.11898 72.114 8.53998C72.4902 8.94907 72.6793 9.47738 72.6793 10.1231ZM71.6558 10.1543C71.6558 9.7553 71.5674 9.41318 71.3915 9.12792C71.1854 8.78305 70.89 8.61061 70.5081 8.61061C70.1111 8.61061 69.8101 8.78305 69.6041 9.12792C69.4272 9.41318 69.3397 9.76081 69.3397 10.1717C69.3397 10.5707 69.4281 10.9128 69.6041 11.1981C69.8176 11.543 70.1149 11.7154 70.4987 11.7154C70.875 11.7154 71.1694 11.5402 71.3821 11.1889C71.5655 10.8982 71.6558 10.5533 71.6558 10.1543Z" fill="white"/>
<path d="M77.4512 12.3208H76.566L76.4926 11.8227H76.4653C76.1624 12.2199 75.7306 12.4189 75.1699 12.4189C74.7513 12.4189 74.4126 12.2878 74.1577 12.0273C73.9263 11.7906 73.8105 11.4962 73.8105 11.1467C73.8105 10.6184 74.0363 10.2157 74.4907 9.93691C74.9441 9.65808 75.582 9.52141 76.4032 9.52783V9.44712C76.4032 8.87752 76.0965 8.59318 75.4822 8.59318C75.0448 8.59318 74.6591 8.7005 74.3261 8.91329L74.1257 8.28224C74.5377 8.03368 75.0467 7.90894 75.6469 7.90894C76.8059 7.90894 77.3872 8.50513 77.3872 9.69752V11.2898C77.3872 11.7218 77.4089 12.0658 77.4512 12.3208ZM76.4277 10.8349V10.1681C75.3402 10.1497 74.7964 10.4405 74.7964 11.0394C74.7964 11.2651 74.8585 11.4338 74.9855 11.5466C75.1125 11.6595 75.2743 11.7154 75.4672 11.7154C75.6836 11.7154 75.8858 11.6485 76.0702 11.5155C76.2555 11.3815 76.3694 11.2119 76.4117 11.0036C76.422 10.9569 76.4277 10.9 76.4277 10.8349Z" fill="white"/>
<path d="M83.0536 12.3208H82.1788L82.1327 11.6265H82.1054C81.826 12.1548 81.35 12.4189 80.6811 12.4189C80.1468 12.4189 79.7018 12.2144 79.349 11.8053C78.9962 11.3962 78.8203 10.8652 78.8203 10.213C78.8203 9.51318 79.0113 8.94634 79.3951 8.51341C79.7667 8.10983 80.222 7.90804 80.7639 7.90804C81.3594 7.90804 81.7761 8.10341 82.0132 8.49506H82.032V6.01306H83.0188V11.1559C83.0188 11.5769 83.0301 11.9649 83.0536 12.3208ZM82.032 10.4974V9.77642C82.032 9.65168 82.0226 9.55079 82.0047 9.47374C81.9492 9.2426 81.8297 9.04815 81.6482 8.8913C81.4647 8.73446 81.2437 8.65558 80.9887 8.65558C80.6209 8.65558 80.333 8.79775 80.1214 9.083C79.9116 9.36826 79.8053 9.7324 79.8053 10.1772C79.8053 10.6047 79.9059 10.9514 80.1082 11.2183C80.3217 11.5026 80.6096 11.6448 80.9699 11.6448C81.2935 11.6448 81.5522 11.5265 81.7488 11.2889C81.9389 11.0697 82.032 10.8055 82.032 10.4974Z" fill="white"/>
<path d="M91.486 10.1231C91.486 10.7881 91.2912 11.3329 90.9018 11.7604C90.4935 12.1997 89.9535 12.4189 89.2771 12.4189C88.6271 12.4189 88.1087 12.2089 87.7211 11.787C87.3354 11.3659 87.1426 10.8349 87.1426 10.1947C87.1426 9.52508 87.3411 8.97566 87.7399 8.54916C88.1388 8.12265 88.675 7.90894 89.3514 7.90894C90.0015 7.90894 90.5255 8.11898 90.9206 8.53998C91.2969 8.94907 91.486 9.47738 91.486 10.1231ZM90.4643 10.1543C90.4643 9.7553 90.3759 9.41318 90.2 9.12792C89.9921 8.78305 89.6986 8.61061 89.3148 8.61061C88.9196 8.61061 88.6186 8.78305 88.4107 9.12792C88.2338 9.41318 88.1463 9.76081 88.1463 10.1717C88.1463 10.5707 88.2348 10.9128 88.4107 11.1981C88.6242 11.543 88.9215 11.7154 89.3053 11.7154C89.6816 11.7154 89.978 11.5402 90.1906 11.1889C90.3721 10.8982 90.4643 10.5533 90.4643 10.1543Z" fill="white"/>
<path d="M96.7866 12.3207H95.8016V9.84422C95.8016 9.08109 95.5044 8.69953 94.907 8.69953C94.6144 8.69953 94.3783 8.80409 94.1958 9.01413C94.0133 9.22418 93.922 9.47183 93.922 9.75525V12.3198H92.9352V9.23243C92.9352 8.8527 92.9239 8.44087 92.9004 7.9951H93.7659L93.812 8.67109H93.8392C93.955 8.46105 94.1262 8.28769 94.3501 8.14919C94.6182 7.98776 94.9164 7.90613 95.2447 7.90613C95.6577 7.90613 96.002 8.03637 96.2758 8.29778C96.6172 8.61789 96.7866 9.09577 96.7866 9.73048V12.3207Z" fill="white"/>
<path d="M103.422 8.717H102.336V10.8174C102.336 11.3513 102.529 11.6182 102.911 11.6182C103.088 11.6182 103.234 11.6035 103.35 11.5732L103.375 12.3024C103.181 12.374 102.925 12.4097 102.61 12.4097C102.22 12.4097 101.917 12.2942 101.698 12.063C101.478 11.8319 101.369 11.443 101.369 10.8972V8.717H100.721V7.99698H101.369V7.2045L102.335 6.92017V7.99607H103.421V8.717H103.422Z" fill="white"/>
<path d="M108.64 12.3208H107.654V9.86264C107.654 9.08759 107.356 8.6996 106.761 8.6996C106.304 8.6996 105.991 8.92432 105.82 9.37376C105.791 9.46824 105.774 9.58381 105.774 9.71956V12.3199H104.789V6.01306H105.774V8.61889H105.793C106.103 8.14469 106.548 7.90804 107.125 7.90804C107.533 7.90804 107.871 8.03829 108.139 8.2997C108.473 8.62531 108.64 9.1096 108.64 9.74983V12.3208Z" fill="white"/>
<path d="M114.025 9.95429C114.025 10.1267 114.012 10.2717 113.988 10.39H111.031C111.044 10.8174 111.186 11.143 111.459 11.3687C111.71 11.5704 112.032 11.6713 112.427 11.6713C112.865 11.6713 113.264 11.6035 113.623 11.4668L113.777 12.1345C113.357 12.3125 112.862 12.4014 112.289 12.4014C111.602 12.4014 111.061 12.2042 110.67 11.8098C110.277 11.4154 110.082 10.8862 110.082 10.2221C110.082 9.56998 110.264 9.02698 110.63 8.59405C111.011 8.13177 111.528 7.90063 112.18 7.90063C112.818 7.90063 113.302 8.13177 113.63 8.59405C113.894 8.96094 114.025 9.41497 114.025 9.95429ZM113.084 9.70573C113.091 9.42047 113.027 9.17466 112.893 8.96736C112.722 8.70045 112.461 8.56654 112.108 8.56654C111.787 8.56654 111.524 8.69678 111.324 8.95819C111.16 9.1664 111.063 9.41497 111.031 9.70573H113.084Z" fill="white"/>
</svg>
