<svg width="163" height="169" viewBox="0 0 163 169" fill="none" xmlns="http://www.w3.org/2000/svg">
<path d="M163 82.1153C163 36.7643 126.511 0 81.5 0C36.4888 0 0 36.7643 0 82.1153V86.8847C0 132.236 36.4888 169 81.5 169C126.511 169 163 132.236 163 86.8847V82.1153Z" fill="#1C1C1C"/>
<path d="M81.5071 103.411C77.7885 103.411 74.6633 100.263 74.6633 96.5165V64.9643C74.6897 59.1321 69.8765 54.4026 64.1535 54.4956C58.4437 54.4026 53.6174 59.1321 53.6438 64.9643V96.5165C53.6438 100.329 50.5845 103.411 46.7999 103.411C43.1209 103.411 39.9561 100.21 39.9561 96.5165V65.0706C39.9561 58.335 42.6593 52.2372 47.0373 47.8265C51.4152 43.4158 57.4547 40.6924 64.1403 40.6924C70.826 40.6924 77.1028 43.5221 81.494 48.0922C85.8851 43.5354 92.0433 40.6924 98.8476 40.6924C105.652 40.6924 111.573 43.4158 115.951 47.8265C120.329 52.2372 123.032 58.335 123.032 65.0706V96.5165C123.032 100.21 119.867 103.411 116.188 103.411C112.403 103.411 109.344 100.329 109.344 96.5165V64.9643C109.371 59.1321 104.557 54.4026 98.8344 54.4956C93.1246 54.4026 88.2983 59.1321 88.3246 64.9643V96.5165C88.3246 100.263 85.1862 103.411 81.4808 103.411H81.5071Z" fill="#FF9D00"/>
<path d="M69.6915 122.622C69.8893 122.462 69.9948 122.25 69.9948 121.957C69.9948 121.027 69.8761 120.204 69.6256 119.46C69.375 118.716 69.019 118.091 68.5443 117.573C68.0696 117.055 67.5025 116.657 66.83 116.378C66.1575 116.099 65.4059 115.966 64.5751 115.966C63.4279 115.966 62.4125 116.232 61.5158 116.763C60.6191 117.294 59.9202 118.012 59.4191 118.942C58.918 119.872 58.6543 120.948 58.6543 122.183C58.6543 123.419 58.918 124.548 59.4455 125.465C59.973 126.395 60.7114 127.099 61.6872 127.604C62.6498 128.108 63.8103 128.361 65.1421 128.361C65.7751 128.361 66.4476 128.281 67.1861 128.108C67.9245 127.936 68.5706 127.67 69.1377 127.311C69.4278 127.139 69.6388 126.926 69.7574 126.674C69.8761 126.434 69.9289 126.195 69.8893 125.956C69.8629 125.717 69.7706 125.518 69.6124 125.358C69.4542 125.199 69.2564 125.106 68.9926 125.079C68.7289 125.053 68.4388 125.146 68.0959 125.332C67.6344 125.598 67.1333 125.77 66.6058 125.877C66.0784 125.983 65.6168 126.036 65.1949 126.036C63.9817 126.036 63.0718 125.704 62.452 125.053C61.9641 124.535 61.6608 123.791 61.5685 122.848H68.8739C69.2432 122.848 69.5333 122.768 69.7311 122.622H69.6915ZM62.9531 118.503C63.4279 118.184 64.0081 118.025 64.6806 118.025C65.2872 118.025 65.8015 118.158 66.2102 118.424C66.619 118.689 66.9355 119.075 67.1465 119.579C67.3311 119.991 67.4234 120.509 67.463 121.094H61.5422C61.5949 120.629 61.7004 120.217 61.8586 119.845C62.1092 119.274 62.4652 118.822 62.94 118.503H62.9531Z" fill="white"/>
<path d="M83.0763 122.622C83.2741 122.462 83.3796 122.25 83.3796 121.957C83.3796 121.027 83.2609 120.204 83.0103 119.46C82.7598 118.716 82.4038 118.091 81.929 117.573C81.4543 117.055 80.8873 116.657 80.2148 116.378C79.5423 116.099 78.7906 115.966 77.9599 115.966C76.8126 115.966 75.7973 116.232 74.9006 116.763C74.0039 117.294 73.305 118.012 72.8039 118.942C72.3028 119.872 72.0391 120.948 72.0391 122.183C72.0391 123.419 72.3028 124.548 72.8303 125.465C73.3577 126.395 74.0962 127.099 75.072 127.604C76.0346 128.108 77.195 128.361 78.5269 128.361C79.1598 128.361 79.8324 128.281 80.5708 128.108C81.3093 127.936 81.9554 127.67 82.5224 127.311C82.8125 127.139 83.0235 126.926 83.1422 126.674C83.2609 126.434 83.3136 126.195 83.2741 125.956C83.2477 125.717 83.1554 125.518 82.9972 125.358C82.8389 125.199 82.6411 125.106 82.3774 125.079C82.1137 125.053 81.8235 125.146 81.4807 125.332C81.0192 125.598 80.5181 125.77 79.9906 125.877C79.4631 125.983 79.0016 126.036 78.5796 126.036C77.3665 126.036 76.4566 125.704 75.8368 125.053C75.3489 124.535 75.0456 123.791 74.9533 122.848H82.2587C82.6279 122.848 82.918 122.768 83.1158 122.622H83.0763ZM76.3379 118.503C76.8126 118.184 77.3928 118.025 78.0654 118.025C78.6719 118.025 79.1862 118.158 79.595 118.424C80.0038 118.689 80.3203 119.075 80.5313 119.579C80.7159 119.991 80.8082 120.509 80.8477 121.094H74.9269C74.9797 120.629 75.0852 120.217 75.2434 119.845C75.494 119.274 75.85 118.822 76.3247 118.503H76.3379Z" fill="white"/>
<path d="M92.0832 121.386L89.6701 120.921C89.2085 120.841 88.8525 120.682 88.6283 120.456C88.4041 120.23 88.2855 119.938 88.2855 119.606C88.2855 119.154 88.4701 118.782 88.8525 118.517C89.2349 118.238 89.8151 118.105 90.6063 118.105C91.0283 118.105 91.4634 118.158 91.925 118.277C92.3865 118.397 92.8612 118.583 93.3623 118.835C93.6392 118.968 93.8766 119.008 94.1008 118.968C94.3118 118.928 94.4964 118.822 94.6414 118.649C94.7865 118.477 94.8788 118.291 94.9315 118.065C94.9843 117.852 94.9579 117.626 94.8656 117.414C94.7733 117.201 94.615 117.029 94.3645 116.896C93.7843 116.577 93.1777 116.338 92.5579 116.178C91.9382 116.019 91.2788 115.953 90.5667 115.953C89.5778 115.953 88.7074 116.112 87.9558 116.417C87.2042 116.723 86.6108 117.161 86.1756 117.733C85.7536 118.304 85.5295 118.968 85.5295 119.752C85.5295 120.616 85.7932 121.32 86.3206 121.864C86.8481 122.409 87.5998 122.781 88.6019 122.967L91.0151 123.432C91.5162 123.525 91.8854 123.684 92.136 123.884C92.3865 124.083 92.5052 124.375 92.5052 124.747C92.5052 125.186 92.3206 125.544 91.9382 125.81C91.5557 126.076 90.9887 126.209 90.2107 126.209C89.6569 126.209 89.103 126.142 88.5492 126.023C87.9822 125.903 87.3756 125.691 86.7426 125.372C86.4789 125.239 86.2415 125.199 86.0305 125.252C85.8064 125.305 85.6349 125.412 85.5031 125.571C85.3712 125.73 85.2921 125.93 85.2657 126.142C85.2394 126.355 85.2789 126.581 85.3844 126.793C85.4899 127.006 85.6745 127.205 85.9251 127.364C86.5316 127.723 87.2305 127.976 88.0085 128.122C88.7865 128.268 89.5118 128.334 90.2107 128.334C91.7404 128.334 92.9667 128.002 93.8898 127.325C94.8128 126.647 95.2612 125.717 95.2612 124.535C95.2612 123.658 94.9975 122.954 94.4568 122.436C93.9161 121.918 93.125 121.559 92.07 121.36L92.0832 121.386Z" fill="white"/>
<path d="M106.839 116.497C106.232 116.139 105.441 115.966 104.491 115.966C103.542 115.966 102.685 116.192 101.946 116.63C101.406 116.949 100.97 117.387 100.628 117.932V112.286C100.628 111.781 100.496 111.396 100.232 111.143C99.9683 110.878 99.5859 110.758 99.1112 110.758C98.6365 110.758 98.2541 110.891 98.0035 111.143C97.753 111.396 97.6211 111.781 97.6211 112.286V126.753C97.6211 127.258 97.753 127.643 98.0035 127.909C98.2672 128.175 98.6365 128.308 99.1112 128.308C100.127 128.308 100.628 127.79 100.628 126.753V121.426C100.628 120.496 100.891 119.752 101.419 119.194C101.946 118.636 102.645 118.357 103.529 118.357C104.254 118.357 104.795 118.57 105.137 118.995C105.48 119.42 105.652 120.084 105.652 121.014V126.767C105.652 127.271 105.784 127.657 106.047 127.922C106.311 128.188 106.693 128.321 107.168 128.321C107.643 128.321 108.025 128.188 108.276 127.922C108.54 127.657 108.658 127.271 108.658 126.767V120.868C108.658 119.765 108.5 118.849 108.197 118.131C107.893 117.414 107.432 116.869 106.825 116.511L106.839 116.497Z" fill="white"/>
<path d="M120.197 116.683C119.3 116.178 118.232 115.926 117.006 115.926C116.083 115.926 115.252 116.072 114.514 116.351C113.775 116.63 113.142 117.055 112.601 117.587C112.074 118.131 111.665 118.782 111.375 119.54C111.098 120.297 110.953 121.147 110.953 122.104C110.953 123.366 111.204 124.468 111.705 125.398C112.206 126.328 112.905 127.046 113.801 127.551C114.698 128.055 115.766 128.308 116.993 128.308C117.916 128.308 118.746 128.162 119.485 127.883C120.223 127.604 120.856 127.179 121.397 126.647C121.924 126.102 122.333 125.451 122.623 124.681C122.9 123.924 123.045 123.06 123.045 122.104C123.045 120.842 122.795 119.739 122.294 118.822C121.793 117.892 121.094 117.188 120.197 116.683ZM119.63 124.269C119.379 124.84 119.023 125.279 118.575 125.571C118.127 125.863 117.599 126.009 117.006 126.009C116.109 126.009 115.384 125.677 114.83 125.026C114.276 124.375 114.012 123.392 114.012 122.117C114.012 121.253 114.131 120.536 114.382 119.965C114.632 119.393 114.988 118.955 115.437 118.676C115.885 118.397 116.412 118.251 117.006 118.251C117.902 118.251 118.628 118.57 119.182 119.207C119.735 119.845 119.999 120.815 119.999 122.117C119.999 122.98 119.88 123.698 119.63 124.269Z" fill="white"/>
<path d="M48.1318 128.308C47.4065 128.308 46.7867 127.683 46.7867 126.953V120.748C46.7867 119.606 45.8373 118.676 44.7164 118.689C43.5956 118.676 42.6461 119.606 42.6461 120.748V126.953C42.6461 127.697 42.0395 128.308 41.3011 128.308C40.5758 128.308 39.9561 127.683 39.9561 126.953V120.762C39.9561 119.433 40.4835 118.238 41.3538 117.374C42.211 116.511 43.3978 115.966 44.7164 115.966C46.0351 115.966 47.2615 116.524 48.1318 117.427C49.0021 116.524 50.2021 115.966 51.5471 115.966C52.8921 115.966 54.0526 116.497 54.9097 117.374C55.7668 118.238 56.3075 119.447 56.3075 120.762V126.953C56.3075 127.683 55.6877 128.308 54.9624 128.308C54.224 128.308 53.6174 127.697 53.6174 126.953V120.748C53.6174 119.606 52.668 118.676 51.5471 118.689C50.4262 118.676 49.4768 119.606 49.4768 120.748V126.953C49.4768 127.683 48.857 128.308 48.1318 128.308Z" fill="white"/>
</svg>
