<svg width="127" height="37" viewBox="0 0 127 37" fill="none" xmlns="http://www.w3.org/2000/svg">
<path d="M122.128 36.6888H4.69724C2.11493 36.6888 0 34.6239 0 32.1027V4.58607C0 2.06485 2.11493 -4.28642e-05 4.69724 -4.28642e-05H122.128C124.71 -4.28642e-05 126.825 2.06485 126.825 4.58607V32.1027C126.825 34.6239 124.71 36.6888 122.128 36.6888Z" fill="#1C1C1C"/>
<path d="M122.128 0.734879C124.303 0.734879 126.073 2.4627 126.073 4.58607V32.1027C126.073 34.2261 124.303 35.9539 122.128 35.9539H4.69724C2.52242 35.9539 0.752732 34.2261 0.752732 32.1027V4.58607C0.752732 2.4627 2.52242 0.734879 4.69724 0.734879H122.128ZM122.128 -4.28642e-05H4.69724C2.11493 -4.28642e-05 0 2.06485 0 4.58607V32.1027C0 34.6239 2.11493 36.6888 4.69724 36.6888H122.128C124.71 36.6888 126.825 34.6239 126.825 32.1027V4.58607C126.825 2.06485 124.71 -4.28642e-05 122.128 -4.28642e-05Z" fill="#A6A6A6"/>
<path d="M44.5464 9.39582C44.5464 10.1617 44.3115 10.7751 43.8488 11.2326C43.3169 11.7749 42.624 12.0477 41.775 12.0477C40.9636 12.0477 40.2707 11.7703 39.7024 11.2234C39.1328 10.6685 38.8486 9.98743 38.8486 9.17224C38.8486 8.35706 39.1328 7.67603 39.7024 7.12569C40.2707 6.57421 40.9636 6.29675 41.775 6.29675C42.179 6.29675 42.5641 6.37816 42.9317 6.5295C43.2981 6.68199 43.5964 6.88836 43.8124 7.14289L43.3216 7.62673C42.9446 7.19219 42.4315 6.97779 41.775 6.97779C41.1832 6.97779 40.67 7.17958 40.2343 7.5866C39.8033 7.99476 39.5873 8.52331 39.5873 9.17224C39.5873 9.82118 39.8033 10.3543 40.2343 10.7625C40.67 11.1649 41.1832 11.3713 41.775 11.3713C42.4033 11.3713 42.9317 11.1649 43.3486 10.7579C43.6234 10.4885 43.7796 10.117 43.8207 9.64232H41.775V8.97963H44.5041C44.537 9.12294 44.5464 9.26167 44.5464 9.39582Z" fill="white" stroke="white" stroke-width="0.16" stroke-miterlimit="10"/>
<path d="M48.8771 7.09803H46.3136V8.84076H48.6247V9.50345H46.3136V11.2462H48.8771V11.9215H45.5879V6.42273H48.8771V7.09803Z" fill="white" stroke="white" stroke-width="0.16" stroke-miterlimit="10"/>
<path d="M51.9309 11.9215H51.2052V7.09803H49.6328V6.42273H53.5045V7.09803H51.9309V11.9215Z" fill="white" stroke="white" stroke-width="0.16" stroke-miterlimit="10"/>
<path d="M56.3066 11.9215V6.42273H57.0312V11.9215H56.3066Z" fill="white" stroke="white" stroke-width="0.16" stroke-miterlimit="10"/>
<path d="M60.2434 11.9215H59.5236V7.09803H57.9453V6.42273H61.8217V7.09803H60.2434V11.9215Z" fill="white" stroke="white" stroke-width="0.16" stroke-miterlimit="10"/>
<path d="M69.1513 11.2142C68.5959 11.7703 67.9077 12.0477 67.0869 12.0477C66.2613 12.0477 65.5732 11.7703 65.0177 11.2142C64.4635 10.6593 64.1875 9.97825 64.1875 9.17224C64.1875 8.36624 64.4635 7.6852 65.0177 7.13028C65.5732 6.57421 66.2613 6.29675 67.0869 6.29675C67.903 6.29675 68.5912 6.57421 69.1466 7.13486C69.7056 7.69437 69.9815 8.37082 69.9815 9.17224C69.9815 9.97825 69.7056 10.6593 69.1513 11.2142ZM65.5544 10.7533C65.9725 11.1649 66.4809 11.3713 67.0869 11.3713C67.6881 11.3713 68.2013 11.1649 68.6146 10.7533C69.0315 10.3417 69.2429 9.81315 69.2429 9.17224C69.2429 8.53134 69.0315 8.00279 68.6146 7.59118C68.2013 7.17958 67.6881 6.9732 67.0869 6.9732C66.4809 6.9732 65.9725 7.17958 65.5544 7.59118C65.1375 8.00279 64.9261 8.53134 64.9261 9.17224C64.9261 9.81315 65.1375 10.3417 65.5544 10.7533Z" fill="white" stroke="white" stroke-width="0.16" stroke-miterlimit="10"/>
<path d="M70.998 11.9215V6.42273H71.8788L74.6173 10.6993H74.649L74.6173 9.64218V6.42273H75.3418V11.9215H74.5856L71.7179 7.43397H71.6862L71.7179 8.49565V11.9215H70.998Z" fill="white" stroke="white" stroke-width="0.16" stroke-miterlimit="10"/>
<path d="M64.009 19.952C61.8025 19.952 59.9999 21.5915 59.9999 23.8536C59.9999 26.0973 61.8025 27.7541 64.009 27.7541C66.2202 27.7541 68.0228 26.0973 68.0228 23.8536C68.0228 21.5915 66.2202 19.952 64.009 19.952ZM64.009 26.2177C62.7983 26.2177 61.7567 25.242 61.7567 23.8536C61.7567 22.4468 62.7983 21.4883 64.009 21.4883C65.2197 21.4883 66.266 22.4468 66.266 23.8536C66.266 25.242 65.2197 26.2177 64.009 26.2177ZM55.2616 19.952C53.0504 19.952 51.2525 21.5915 51.2525 23.8536C51.2525 26.0973 53.0504 27.7541 55.2616 27.7541C57.4716 27.7541 59.2707 26.0973 59.2707 23.8536C59.2707 21.5915 57.4716 19.952 55.2616 19.952ZM55.2616 26.2177C54.0497 26.2177 53.0046 25.242 53.0046 23.8536C53.0046 22.4468 54.0497 21.4883 55.2616 21.4883C56.4723 21.4883 57.5139 22.4468 57.5139 23.8536C57.5139 25.242 56.4723 26.2177 55.2616 26.2177ZM44.8525 21.1478V22.8057H48.9074C48.7888 23.7321 48.4717 24.4131 47.9856 24.8878C47.3937 25.461 46.4719 26.0973 44.8525 26.0973C42.3571 26.0973 40.403 24.131 40.403 21.6947C40.403 19.2583 42.3571 17.292 44.8525 17.292C46.2018 17.292 47.1835 17.8068 47.9081 18.4741L49.1047 17.3058C48.0913 16.361 46.7431 15.6353 44.8525 15.6353C41.4306 15.6353 38.5547 18.3537 38.5547 21.6947C38.5547 25.0357 41.4306 27.7541 44.8525 27.7541C46.702 27.7541 48.0913 27.1625 49.1834 26.0526C50.3025 24.96 50.6512 23.4236 50.6512 22.1831C50.6512 21.7979 50.6184 21.4436 50.5596 21.1478H44.8525ZM87.4165 22.433C87.0865 21.5605 86.0684 19.952 83.9946 19.952C81.9395 19.952 80.2286 21.533 80.2286 23.8536C80.2286 26.0389 81.9219 27.7541 84.1919 27.7541C86.0273 27.7541 87.0865 26.6614 87.5222 26.0251L86.16 25.1388C85.7056 25.7878 85.0867 26.2177 84.1919 26.2177C83.3029 26.2177 82.6653 25.8199 82.2566 25.0357L87.6009 22.8767L87.4165 22.433ZM81.9677 23.7321C81.9219 22.2278 83.1643 21.4573 84.0545 21.4573C84.752 21.4573 85.3439 21.7979 85.5411 22.2851L81.9677 23.7321ZM77.6239 27.5167H79.3807V16.0515H77.6239V27.5167ZM74.7469 20.821H74.6882C74.2936 20.3647 73.5409 19.952 72.5873 19.952C70.5863 19.952 68.7567 21.6672 68.7567 23.8662C68.7567 26.0526 70.5863 27.7541 72.5873 27.7541C73.5409 27.7541 74.2936 27.3379 74.6882 26.8678H74.7469V27.4273C74.7469 28.9189 73.9307 29.7204 72.6143 29.7204C71.541 29.7204 70.8752 28.9637 70.6004 28.3273L69.0726 28.9499C69.513 29.9841 70.6791 31.2567 72.6143 31.2567C74.6741 31.2567 76.4121 30.0735 76.4121 27.1946V20.1893H74.7469V20.821ZM72.7377 26.2177C71.5269 26.2177 70.5135 25.2283 70.5135 23.8662C70.5135 22.4915 71.5269 21.4883 72.7377 21.4883C73.9308 21.4883 74.8714 22.4915 74.8714 23.8662C74.8714 25.2283 73.9308 26.2177 72.7377 26.2177ZM95.6414 16.0515H91.4397V27.5167H93.1918V23.1725H95.6414C97.5872 23.1725 99.4955 21.7979 99.4955 19.6114C99.4955 17.4262 97.5825 16.0515 95.6414 16.0515ZM95.6872 21.5777H93.1918V17.6463H95.6872C96.9954 17.6463 97.7422 18.7068 97.7422 19.6114C97.7422 20.4988 96.9954 21.5777 95.6872 21.5777ZM106.518 19.9302C105.252 19.9302 103.936 20.4759 103.394 21.6855L104.949 22.3218C105.284 21.6855 105.899 21.4791 106.55 21.4791C107.458 21.4791 108.38 22.0123 108.394 22.9536V23.0739C108.077 22.8951 107.399 22.6302 106.564 22.6302C104.889 22.6302 103.183 23.5303 103.183 25.2099C103.183 26.7463 104.554 27.7357 106.096 27.7357C107.275 27.7357 107.926 27.2164 108.334 26.6121H108.394V27.4984H110.087V23.1003C110.087 21.0675 108.532 19.9302 106.518 19.9302ZM106.306 26.2131C105.733 26.2131 104.935 25.9357 104.935 25.242C104.935 24.3546 105.931 24.0141 106.793 24.0141C107.564 24.0141 107.926 24.1803 108.394 24.3993C108.257 25.461 107.321 26.2131 106.306 26.2131ZM116.252 20.1813L114.238 25.1515H114.178L112.096 20.1813H110.206L113.335 27.1269L111.55 30.9919H113.38L118.201 20.1813H116.252ZM100.458 27.5167H102.215V16.0515H100.458V27.5167Z" fill="white"/>
<path d="M9.80481 6.91473C9.52885 7.19677 9.36914 7.63589 9.36914 8.20457V28.4889C9.36914 29.0576 9.52885 29.4967 9.80481 29.7788L9.87292 29.8407L21.515 18.4786V18.2103L9.87292 6.84823L9.80481 6.91473Z" fill="url(#paint0_linear_587_2054)"/>
<path d="M25.3901 22.2679L21.5137 18.4787V18.2104L25.3948 14.4211L25.4817 14.4704L30.0779 17.0237C31.3896 17.7483 31.3896 18.9407 30.0779 19.6699L25.4817 22.2186L25.3901 22.2679Z" fill="url(#paint1_linear_587_2054)"/>
<path d="M25.4819 22.2187L21.5139 18.3446L9.80371 29.7789C10.2394 30.2261 10.9498 30.28 11.7578 29.8328L25.4819 22.2187Z" fill="url(#paint2_linear_587_2054)"/>
<path d="M25.4819 14.47L11.7578 6.85591C10.9498 6.41335 10.2394 6.46724 9.80371 6.91438L21.5139 18.3441L25.4819 14.47Z" fill="url(#paint3_linear_587_2054)"/>
<defs>
<linearGradient id="paint0_linear_587_2054" x1="20.4813" y1="28.7002" x2="5.09256" y2="12.9385" gradientUnits="userSpaceOnUse">
<stop stop-color="#00A0FF"/>
<stop offset="0.0066" stop-color="#00A1FF"/>
<stop offset="0.2601" stop-color="#00BEFF"/>
<stop offset="0.5122" stop-color="#00D2FF"/>
<stop offset="0.7604" stop-color="#00DFFF"/>
<stop offset="1" stop-color="#00E3FF"/>
</linearGradient>
<linearGradient id="paint1_linear_587_2054" x1="31.786" y1="18.3432" x2="9.05425" y2="18.3432" gradientUnits="userSpaceOnUse">
<stop stop-color="#FFE000"/>
<stop offset="0.4087" stop-color="#FFBD00"/>
<stop offset="0.7754" stop-color="#FFA500"/>
<stop offset="1" stop-color="#FF9C00"/>
</linearGradient>
<linearGradient id="paint2_linear_587_2054" x1="23.3242" y1="16.2386" x2="2.45581" y2="-5.13552" gradientUnits="userSpaceOnUse">
<stop stop-color="#FF3A44"/>
<stop offset="1" stop-color="#C31162"/>
</linearGradient>
<linearGradient id="paint3_linear_587_2054" x1="6.85601" y1="36.527" x2="16.1747" y2="26.9825" gradientUnits="userSpaceOnUse">
<stop stop-color="#32A071"/>
<stop offset="0.0685" stop-color="#2DA771"/>
<stop offset="0.4762" stop-color="#15CF74"/>
<stop offset="0.8009" stop-color="#06E775"/>
<stop offset="1" stop-color="#00F076"/>
</linearGradient>
</defs>
</svg>
